<svg width="512" height="512" viewBox="0 0 512 512" fill="none" xmlns="http://www.w3.org/2000/svg">
<path d="M209 35C174.586 35 140.945 45.2049 112.331 64.3243C83.7167 83.4436 61.4147 110.619 48.245 142.413C35.0754 174.207 31.6296 209.193 38.3434 242.946C45.0573 276.698 61.6292 307.702 85.9635 332.037C110.298 356.371 141.302 372.943 175.054 379.657C208.807 386.37 243.793 382.925 275.587 369.755C307.381 356.585 334.556 334.283 353.676 305.669C372.795 277.055 383 243.414 383 209C383 186.15 378.499 163.524 369.755 142.413C361.011 121.302 348.194 102.121 332.037 85.9634C315.879 69.806 296.698 56.9893 275.587 48.2449C254.476 39.5006 231.85 35 209 35Z" stroke="#B0B0B0" stroke-width="58" stroke-miterlimit="10"/>
<path d="M335 335L461 461" stroke="#B0B0B0" stroke-width="58" stroke-miterlimit="10" stroke-linecap="round"/>
</svg>
